<?xml version="1.0" encoding="UTF-8" standalone="no"?>
<svg
   xmlns:dc="https://purl.org/dc/elements/1.1/"
   xmlns:cc="https://creativecommons.org/ns#"
   xmlns:rdf="https://www.w3.org/1999/02/22-rdf-syntax-ns#"
   xmlns:svg="https://www.w3.org/2000/svg"
   xmlns="https://www.w3.org/2000/svg"
   xmlns:sodipodi="https://sodipodi.sourceforge.net/DTD/sodipodi-0.dtd"
   xmlns:inkscape="https://www.inkscape.org/namespaces/inkscape"
   version="1.1"
   x="0px"
   y="0px"
   viewBox="0 0 90.356003 89.403"
   enable-background="new 0 0 100 100"
   xml:space="preserve"
   id="svg2"
   inkscape:version="0.91 r13725"
   sodipodi:docname="logo_white.svg"
   ><metadata
     id="metadata10"><rdf:RDF><cc:Work
         rdf:about=""><dc:format>image/svg+xml</dc:format><dc:type
           rdf:resource="https://purl.org/dc/dcmitype/StillImage" /><dc:title></dc:title></cc:Work></rdf:RDF></metadata><defs
     id="defs8" /><sodipodi:namedview
     pagecolor="#ffffff"
     bordercolor="#666666"
     borderopacity="1"
     objecttolerance="10"
     gridtolerance="10"
     guidetolerance="10"
     inkscape:pageopacity="0"
     inkscape:pageshadow="2"
     inkscape:window-width="993"
     inkscape:window-height="641"
     id="namedview6"
     showgrid="false"
     inkscape:zoom="2.36"
     inkscape:cx="-23.677932"
     inkscape:cy="45"
     inkscape:window-x="146"
     inkscape:window-y="30"
     inkscape:window-maximized="0"
     inkscape:current-layer="svg2"
     fit-margin-top="0"
     fit-margin-left="0"
     fit-margin-right="0"
     fit-margin-bottom="0" /><path
     d="M 17.143,81.721 45.223,89.403 67.914,81.75 85.466,64.753 90.356,36.263 73.339,7.96 44.855,0 22.706,7.938 5.029,24.914 0,52.585 17.143,81.721 Z M 8.828,41.277 11.801,59.975 3.369,51.993 8.828,41.277 Z M 73.923,21.891 58.155,10.696 l 13.059,0 2.709,11.195 z m -57.558,45.703 15.767,11.384 -12.87,0 -2.897,-11.384 z m 17.186,-17.09 0.774,-22.892 20.792,9.18 -21.562,13.709 -0.004,0.003 z m -2.658,5.117 3.729,21.519 -0.003,-0.002 -17.997,-12.997 14.271,-8.52 z m 3.009,0.068 0,0 20.289,8.724 L 37.72,77.725 33.902,55.689 Z M 35.131,53.001 56.634,39.326 55.641,61.822 35.131,53.001 Z M 59.587,39.429 77.472,52.946 58.608,61.67 59.587,39.429 Z m 1.257,-2.75 14.301,-8.862 3.202,22.086 -17.503,-13.224 z m -1.521,-2.528 0,0 L 55.59,12.496 73.617,25.295 59.323,34.151 Z M 52.49,11.903 56.315,34.092 35.738,25.006 35.742,25.004 52.488,11.905 52.49,11.903 Z M 30.6,50.381 12.42,36.833 31.366,27.762 30.6,50.381 Z M 29.325,53.119 15.052,61.641 11.6,39.909 29.325,53.119 Z m 27.31,13.113 7.731,12.746 -23.49,0 15.759,-12.746 z M 66.755,77.213 59.143,64.669 77.132,56.356 66.755,77.213 Z M 81.118,48.424 78.326,29.177 86.973,36.901 81.118,48.424 Z M 33.347,23.169 33.346,23.17 26.068,10.696 l 23.184,0 -15.905,12.473 z M 23.581,12.3 23.583,12.296 30.838,24.733 12.871,33.337 23.581,12.3 Z m -15.467,48.257 4.508,4.265 1.514,5.966 -6.022,-10.231 z m 20.989,21.373 7.042,0 3.216,2.806 -10.258,-2.806 z m 16.405,4.264 -4.876,-4.264 17.496,0 -12.62,4.264 z M 71.631,74.039 80.097,57.016 82.389,63.621 71.631,74.039 Z M 83.604,58.155 82.16,54.03 l -0.236,-0.674 0.271,-0.535 3.507,-6.89 -2.098,12.224 z M 82.528,28.97 77.604,24.58 76.069,18.231 82.528,28.97 Z m -20.92,-21.226 -7.515,0 -3.445,-3.063 10.96,3.063 z m -17.031,-4.515 5.07,4.515 -17.661,0 12.591,-4.515 z M 18.212,16.343 9.946,32.568 8.064,26.094 18.212,16.343 Z M 6.731,32.074 7.995,36.408 4.8,42.666 6.731,32.074 Z"
     id="path4"
     style="fill:#ffffff;fill-opacity:1"
     inkscape:export-xdpi="90"
     inkscape:export-ydpi="90"
     inkscape:connector-curvature="0" /></svg>
